<svg version="1.1" id="Capa_1" xmlns="http://www.w3.org/2000/svg" x="0" y="0" viewBox="0 0 288.906 288.906" style="enable-background:new 0 0 288.906 288.906" xml:space="preserve"><path d="M255.529 52.208c-.057-.085-.105-.173-.166-.257a8.969 8.969 0 0 0-1.188-1.343C227.662 19.653 188.312 0 144.453 0 64.802 0 0 64.802 0 144.453s64.802 144.453 144.453 144.453 144.453-64.801 144.453-144.453c0-35.041-12.546-67.205-33.377-92.245zm-46.412 92.245c0-27.988 13.514-54.771 37.354-74.624 10.815 14.745 18.513 31.909 22.12 50.518-.183.117-.366.232-.542.364-18.023 13.467-37.771 23.745-58.656 30.643a89.39 89.39 0 0 1-.276-6.901zm25.71-88.349c-27.896 23.275-43.71 54.984-43.71 88.349 0 3.968.238 7.918.687 11.839-15.353 3.584-31.202 5.421-47.339 5.421-6.289 0-12.531-.287-18.718-.837a211.173 211.173 0 0 1-.64-16.424c0-45.359 14.412-88.397 41.678-124.478 26.42 4.728 50.016 17.695 68.042 36.13zM144.453 18c.53 0 1.057.014 1.585.02-25.5 37.325-38.931 80.798-38.931 126.432 0 4.688.145 9.354.427 13.994a203.6 203.6 0 0 1-43.366-12.866c.002-.376.018-.751.018-1.128 0-26.819-6.105-53.079-17.656-75.941a8.933 8.933 0 0 0-1.494-2.121C68.209 36.943 104.161 18 144.453 18zM33.689 83.504c7.208 16.451 11.399 34.624 12.3 53.309a208.38 208.38 0 0 1-25.663-16.525 125.584 125.584 0 0 1 13.363-36.784zm-15.632 57.295a224.61 224.61 0 0 0 27.625 16.124c-1.335 17.029-5.387 33.453-11.986 48.49C23.699 187.323 18 166.542 18 144.453c0-1.223.022-2.44.057-3.654zm27.212 82.004c9.377-17.772 15.391-37.571 17.758-58.257a221.619 221.619 0 0 0 46.41 12.468c4.854 33.657 17.248 65.542 36.597 93.871-.527.006-1.053.02-1.581.02-40.16.001-76.004-18.82-99.184-48.102zm121.432 46.142a8.964 8.964 0 0 0-.59-.908c-19.823-26.529-32.731-56.792-38.124-88.922 5.457.391 10.95.599 16.478.599 17.345 0 34.384-1.953 50.898-5.763 6.443 22.156 20.039 42.63 39.463 58.853-18.045 18.453-41.671 31.426-68.125 36.141zm79.768-49.864c-16.882-14.026-28.428-31.159-33.837-49.857 20.548-6.527 40.109-16.045 58.219-28.406.034 1.208.056 2.419.056 3.635-.001 27.891-9.084 53.696-24.438 74.628z"/></svg>